<?xml version="1.0" encoding="UTF-8"?>
<svg id="uuid-2299f707-c811-45e3-9330-174e0d181b84" data-name="Capa 2" xmlns="http://www.w3.org/2000/svg" viewBox="0 0 757.99 903.03">
  <defs>
    <style>
      .uuid-0fb96374-f1ff-437c-8a49-dd64610e5026 {
        fill: #d3b179;
      }

      .uuid-0fb96374-f1ff-437c-8a49-dd64610e5026, .uuid-8e3f7290-08ca-4eef-aea4-b407246ccab0, .uuid-b0b249be-90c7-498d-a4ff-c1773435d875 {
        stroke-width: 0px;
      }

      .uuid-8e3f7290-08ca-4eef-aea4-b407246ccab0 {
        fill: none;
      }

      .uuid-b0b249be-90c7-498d-a4ff-c1773435d875 {
        fill: #6e203d;
      }
    </style>
  </defs>
  <g id="uuid-02269a88-d067-42ec-88b0-3f89c412a15d" data-name="Capa 1">
    <path class="uuid-8e3f7290-08ca-4eef-aea4-b407246ccab0" d="M305.1,605.32h-47.63c-1.98,0-3.59,1.61-3.59,3.59v206.22c0,1.98,1.61,3.59,3.59,3.59h47.63c1.98,0,3.59-1.61,3.59-3.59v-206.22c0-1.98-1.61-3.59-3.59-3.59Z"/>
    <path class="uuid-8e3f7290-08ca-4eef-aea4-b407246ccab0" d="M453.45,818.71h47.63c1.98,0,3.59-1.61,3.59-3.59v-206.22c0-1.98-1.61-3.59-3.59-3.59h-47.63c-1.98,0-3.59,1.61-3.59,3.59v206.22c0,1.98,1.61,3.59,3.59,3.59Z"/>
    <path class="uuid-b0b249be-90c7-498d-a4ff-c1773435d875" d="M755.82,672.12s-1.09,1.32-1.67,2.13c-.56.79-1.34,1.83-2.45,3.16-1.15,1.38-2.52,2.96-4.12,4.69-4.25,4.61-10.06,10.25-17.3,15.75-3.62,2.75-7.59,5.46-11.9,7.99-11.85,6.96-26.26,12.53-42.88,13.66-9.11.62-17.72-.17-25.85-2.07-2.32-.54-4.6-1.18-6.84-1.9-1.12-.36-2.23-.74-3.33-1.14-4.4-1.6-8.64-3.53-12.72-5.72-1.02-.55-2.03-1.11-3.03-1.69-48.99-28.43-73.73-94.8-73.38-97.06.22-1.4,1-2.23,1-2.23.46-.49.98-.77,1.42-.92.11-.04.21-.07.31-.1.29-.08.52-.1.63-.11,9.59,0,18.28,0,25.58,0,1.33,0,2.61,0,3.84,0,11.72,0,19.06,0,19.55-.02.1,0,.53-.02,1.08.13.4.11.72.27.97.42.09.05.2.12.31.2.1.08.18.16.25.23.1.09.21.2.32.33.09.11.17.22.24.31h0c.32.47.45.9.51,1.1h0s.35,1.01,1.03,2.69c.17.42.37.89.58,1.39.21.5.45,1.05.71,1.63.39.87.82,1.82,1.31,2.84.48,1.02,1.02,2.1,1.6,3.24,3.88,7.59,9.93,17.57,18.2,25.97,1.24,1.26,2.53,2.48,3.87,3.66.89.78,1.81,1.55,2.75,2.28.47.37.94.73,1.42,1.08,2.88,2.13,5.96,4.01,9.25,5.53.55.25,1.1.5,1.66.73,1.12.47,2.26.89,3.42,1.27,6.4,2.09,13.47,2.79,21.24,1.46,1.67-.29,3.31-.66,4.91-1.1,3.21-.89,6.3-2.1,9.23-3.57.73-.37,1.46-.75,2.17-1.15,5-2.8,9.52-6.38,13.44-10.5.56-.59,1.11-1.19,1.65-1.8,9.12-10.37,14.67-23.75,15.04-36.74.03-1.12.03-2.22,0-3.29-.03-1.08-.09-2.14-.17-3.17-.37-4.66-1.25-8.89-2.32-12.57-.12-.41-.24-.81-.37-1.21-.25-.79-.51-1.55-.77-2.29-.65-1.83-1.34-3.48-2-4.94-.27-.58-.53-1.13-.78-1.64-.13-.26-.25-.51-.38-.75-.25-.48-.49-.93-.71-1.34-.11-.21-.22-.4-.33-.59-.54-.94-.99-1.66-1.3-2.14-16.8-25.41-48.05-26.64-55.87-26.53l.54.06c-11.6,0-23.2,0-34.81,0H137.96c-11.6,0-23.2,0-34.81,0l.54-.06c-7.82-.11-39.07,1.12-55.87,26.53-.31.48-.77,1.19-1.3,2.14-.11.19-.22.39-.33.59-.23.41-.47.86-.71,1.34-.12.24-.25.49-.38.75-.26.52-.52,1.06-.78,1.64-.53,1.16-1.08,2.45-1.61,3.86-.4,1.06-.79,2.18-1.16,3.36-.12.39-.25.8-.37,1.21-1.08,3.68-1.95,7.9-2.32,12.57-.08,1.04-.14,2.09-.17,3.17-.03,1.08-.03,2.18,0,3.29.36,13,5.91,26.37,15.04,36.74.54.61,1.09,1.21,1.65,1.8,3.93,4.12,8.45,7.7,13.44,10.5.71.4,1.44.78,2.17,1.15,2.93,1.47,6.02,2.67,9.23,3.57,1.61.45,3.25.82,4.91,1.1,7.77,1.33,14.85.63,21.24-1.46,1.16-.38,2.3-.8,3.42-1.27.56-.23,1.11-.48,1.66-.73,3.29-1.52,6.37-3.4,9.25-5.53.48-.35.96-.72,1.42-1.08.94-.74,1.85-1.5,2.75-2.28,1.34-1.18,2.63-2.4,3.87-3.66,8.27-8.4,14.32-18.38,18.2-25.97.58-1.14,1.11-2.22,1.6-3.24.48-1.02.92-1.97,1.31-2.84.26-.58.49-1.12.71-1.63s.41-.97.58-1.39c.69-1.68,1.03-2.66,1.03-2.69h0c.05-.2.19-.63.51-1.1h0c.07-.1.14-.21.24-.31.11-.13.22-.24.32-.33.07-.07.15-.15.25-.23.11-.09.22-.15.31-.2.25-.15.57-.31.97-.42.54-.15.98-.13,1.08-.13.49.01,7.83.02,19.55.02,1.23,0,2.52,0,3.84,0,7.3,0,15.99,0,25.58,0,.11,0,.34.03.63.11.1.03.2.06.31.1.44.16.96.44,1.42.92,0,0,.79.82,1,2.23.35,2.26-24.4,68.62-73.38,97.06-1,.58-2.01,1.14-3.03,1.69-4.08,2.19-8.32,4.12-12.72,5.72-1.1.4-2.21.78-3.33,1.14-2.24.72-4.52,1.35-6.84,1.9-8.13,1.9-16.74,2.69-25.85,2.07-16.61-1.14-31.03-6.71-42.88-13.66-6.47-3.79-12.17-8-17.05-12.12-4.88-4.12-8.95-8.16-12.14-11.62-1.59-1.73-2.97-3.31-4.12-4.69-2.3-2.76-3.69-4.68-4.12-5.29-.66-.93-1.3-1.88-1.93-2.83v29.35c21.57,33.32,59.02,81.76,118.8,123.76,93.59,65.76,188.09,77.89,232.26,80.64-.07-59.08-.35-289.21,0-293.39.19-2.25,1.39-3.24,1.39-3.24.97-.8,2.19-.78,2.6-.78,2.75.02,21.25,0,46.69,0,.09,0,.23,0,.4,0,.29,0,.61.02.99.12.09.02.28.08.51.18.1.04.48.19.84.51.4.35.92.91,1.19,1.72.13.38.18.76.18,1.14,0,1.26,0,125.17,0,293.75,44.73-2.83,140.22-15.24,234.23-82.03,57.16-40.61,93.62-87,115.2-119.85-.09-9.68-.19-19.35-.28-29.03ZM308.68,816.55c0,1.99-1.61,3.61-3.59,3.61h-47.63c-1.98,0-3.59-1.61-3.59-3.61v-207.32c0-1.99,1.61-3.61,3.59-3.61h47.63c1.98,0,3.59,1.61,3.59,3.61v207.32ZM504.67,816.55c0,1.99-1.61,3.61-3.59,3.61h-47.63c-1.98,0-3.59-1.61-3.59-3.61v-207.32c0-1.99,1.61-3.61,3.59-3.61h47.63c1.98,0,3.59,1.61,3.59,3.61v207.32Z"/>
    <g>
      <path class="uuid-0fb96374-f1ff-437c-8a49-dd64610e5026" d="M379.27,249.29c-38.93,0-70.59,31.67-70.59,70.59s31.67,70.59,70.59,70.59,70.59-31.67,70.59-70.59-31.67-70.59-70.59-70.59Z"/>
      <path class="uuid-0fb96374-f1ff-437c-8a49-dd64610e5026" d="M379.27,0C252.85,68.81,126.42,137.62,0,206.43c.27,112.47.53,224.94.8,337.41h0c11.2-17.13,26.93-31.27,45.75-40.43.78-.38,1.57-.75,2.37-1.12,2.38-1.09,4.82-2.11,7.29-3.04.83-.31,1.66-.61,2.49-.9,1.67-.58,3.36-1.13,5.07-1.64.85-.25,1.71-.5,2.58-.73,12.98-3.52,26.13-3.07,39.27-3.08,10.97-.01,22.09-.02,31.96-.03,1.79,0,3.55,0,5.25,0,.85,0,1.69,0,2.52,0,1.65,0,3.25,0,4.78,0,.77,0,1.52,0,2.25,0,11.03,0,18.32,0,18.32,0l1.32.15h414.51l1.32-.15s7.29,0,18.32,0c.74,0,1.49,0,2.25,0,1.54,0,3.13,0,4.78,0,.83,0,1.66,0,2.52,0,1.7,0,3.46,0,5.25,0,9.87,0,20.99.02,31.96.03,13.14.01,26.29-.44,39.27,3.08.86.23,1.72.48,2.58.73,1.71.51,3.4,1.05,5.07,1.64.84.29,1.67.59,2.49.9,2.48.93,4.91,1.94,7.29,3.04.79.36,1.58.74,2.37,1.12,18.82,9.16,34.55,23.3,45.75,40.43h0c.08-112.75.17-225.51.25-338.26C631.75,137.05,505.51,68.53,379.27,0ZM379.27,445.28c-69.25,0-125.39-56.14-125.39-125.39s56.14-125.39,125.39-125.39,125.39,56.14,125.39,125.39-56.14,125.39-125.39,125.39Z"/>
    </g>
  </g>
</svg>