<?xml version="1.0" encoding="UTF-8"?>
<svg id="uuid-04dac642-2d61-4a67-9107-aeb7688f60f6" data-name="Capa 2" xmlns="http://www.w3.org/2000/svg" viewBox="0 0 176.74 73.19">
  <defs>
    <style>
      .uuid-ce1c9ee9-b3b1-4121-923a-90b8867e29d6 {
        fill: #222221;
      }

      .uuid-ce1c9ee9-b3b1-4121-923a-90b8867e29d6, .uuid-e9547796-c9b5-4e5a-aa40-b9382e1eb42f, .uuid-6c524f82-c126-48f1-92ed-9a8c213f68f9, .uuid-77725dcf-8ef2-4558-93e0-628de581d844 {
        stroke-width: 0px;
      }

      .uuid-e9547796-c9b5-4e5a-aa40-b9382e1eb42f {
        fill: none;
      }

      .uuid-6c524f82-c126-48f1-92ed-9a8c213f68f9 {
        fill: #c8af7b;
      }

      .uuid-77725dcf-8ef2-4558-93e0-628de581d844 {
        fill: #5f253e;
      }
    </style>
  </defs>
  <g id="uuid-9b573f6b-3a06-4b72-93a8-5999a9a4799f" data-name="Capa 1">
    <path class="uuid-e9547796-c9b5-4e5a-aa40-b9382e1eb42f" d="M26.69,39.79c0-.86-.7-1.55-1.55-1.55h-3.22c-.86,0-1.55.7-1.55,1.55v21.51c0,.86.7,1.55,1.55,1.55h3.22c.86,0,1.55-.7,1.55-1.55v-21.51Z"/>
    <path class="uuid-e9547796-c9b5-4e5a-aa40-b9382e1eb42f" d="M42.97,61.3c0,.86.7,1.55,1.55,1.55h3.22c.86,0,1.55-.7,1.55-1.55v-21.51c0-.86-.7-1.55-1.55-1.55h-3.22c-.86,0-1.55.7-1.55,1.55v21.51Z"/>
    <g>
      <path class="uuid-77725dcf-8ef2-4558-93e0-628de581d844" d="M61.25,54.47s-.09.11-.14.17c-.05.06-.11.15-.2.26-.09.11-.2.24-.33.38-.34.37-.82.83-1.4,1.28-.29.22-.61.44-.96.65-.96.56-2.13,1.02-3.48,1.11-.74.05-1.44-.01-2.09-.17-.19-.04-.37-.1-.55-.15-.09-.03-.18-.06-.27-.09-.36-.13-.7-.29-1.03-.46-.08-.04-.16-.09-.25-.14-3.97-2.3-5.98-7.68-5.95-7.87.02-.11.08-.18.08-.18.04-.04.08-.06.12-.07,0,0,.02,0,.03,0,.02,0,.04,0,.05,0,.78,0,1.48,0,2.07,0,.11,0,.21,0,.31,0,.95,0,1.54,0,1.58,0,0,0,.04,0,.09.01.03,0,.06.02.08.03,0,0,.02,0,.03.02,0,0,.01.01.02.02,0,0,.02.02.03.03,0,0,.01.02.02.03h0s.04.07.04.09h0s.03.08.08.22c.01.03.03.07.05.11.02.04.04.08.06.13.03.07.07.15.11.23.04.08.08.17.13.26.31.62.8,1.42,1.47,2.1.1.1.21.2.31.3.07.06.15.13.22.18.04.03.08.06.12.09.23.17.48.32.75.45.04.02.09.04.13.06.09.04.18.07.28.1.52.17,1.09.23,1.72.12.14-.02.27-.05.4-.09.26-.07.51-.17.75-.29.06-.03.12-.06.18-.09.4-.23.77-.52,1.09-.85.05-.05.09-.1.13-.15.74-.84,1.19-1.92,1.22-2.98,0-.09,0-.18,0-.27,0-.09,0-.17-.01-.26-.03-.38-.1-.72-.19-1.02,0-.03-.02-.07-.03-.1-.02-.06-.04-.13-.06-.19-.05-.15-.11-.28-.16-.4-.02-.05-.04-.09-.06-.13-.01-.02-.02-.04-.03-.06-.02-.04-.04-.08-.06-.11,0-.02-.02-.03-.03-.05-.04-.08-.08-.13-.11-.17-1.36-2.06-3.89-2.16-4.53-2.15h.04c-.94,0-1.88,0-2.82,0H11.18c-.94,0-1.88,0-2.82,0h.04c-.63-.01-3.17.09-4.53,2.14-.03.04-.06.1-.11.17,0,.02-.02.03-.03.05-.02.03-.04.07-.06.11-.01.02-.02.04-.03.06-.02.04-.04.09-.06.13-.04.09-.09.2-.13.31-.03.09-.06.18-.09.27-.01.03-.02.06-.03.1-.09.3-.16.64-.19,1.02,0,.08-.01.17-.01.26,0,.09,0,.18,0,.27.03,1.05.48,2.14,1.22,2.98.04.05.09.1.13.15.32.33.68.62,1.09.85.06.03.12.06.18.09.24.12.49.22.75.29.13.04.26.07.4.09.63.11,1.2.05,1.72-.12.09-.03.19-.07.28-.1.05-.02.09-.04.13-.06.27-.12.52-.28.75-.45.04-.03.08-.06.12-.09.08-.06.15-.12.22-.18.11-.1.21-.19.31-.3.67-.68,1.16-1.49,1.47-2.1.05-.09.09-.18.13-.26.04-.08.07-.16.11-.23.02-.05.04-.09.06-.13s.03-.08.05-.11c.06-.14.08-.22.08-.22h0s.02-.05.04-.09h0s.01-.02.02-.03c0-.01.02-.02.03-.03,0,0,.01-.01.02-.02,0,0,.02-.01.03-.02.02-.01.05-.03.08-.03.04-.01.08-.01.09-.01.04,0,.63,0,1.58,0,.1,0,.2,0,.31,0,.59,0,1.3,0,2.07,0,0,0,.03,0,.05,0,0,0,.02,0,.03,0,.04.01.08.04.12.07,0,0,.06.07.08.18.03.18-1.98,5.56-5.95,7.87-.08.05-.16.09-.25.14-.33.18-.67.33-1.03.46-.09.03-.18.06-.27.09-.18.06-.37.11-.55.15-.66.15-1.36.22-2.09.17-1.35-.09-2.51-.54-3.48-1.11-.52-.31-.99-.65-1.38-.98-.4-.33-.73-.66-.98-.94-.13-.14-.24-.27-.33-.38-.19-.22-.3-.38-.33-.43-.05-.08-.11-.15-.16-.23v2.38c1.75,2.7,4.78,6.63,9.63,10.03,7.59,5.33,15.24,6.31,18.82,6.54,0-4.79-.03-23.44,0-23.78.02-.18.11-.26.11-.26.08-.06.18-.06.21-.06.22,0,1.72,0,3.78,0,0,0,.02,0,.03,0,.02,0,.05,0,.08,0,0,0,.02,0,.04.01,0,0,.04.02.07.04.03.03.07.07.1.14.01.03.01.06.01.09,0,.1,0,10.14,0,23.81,3.63-.23,11.36-1.24,18.98-6.65,4.63-3.29,7.59-7.05,9.34-9.71,0-.78-.02-1.57-.02-2.35ZM25.02,66.18c0,.16-.13.29-.29.29h-3.86c-.16,0-.29-.13-.29-.29v-16.8c0-.16.13-.29.29-.29h3.86c.16,0,.29.13.29.29v16.8ZM40.9,66.18c0,.16-.13.29-.29.29h-3.86c-.16,0-.29-.13-.29-.29v-16.8c0-.16.13-.29.29-.29h3.86c.16,0,.29.13.29.29v16.8Z"/>
      <g>
        <circle class="uuid-6c524f82-c126-48f1-92ed-9a8c213f68f9" cx="30.74" cy="25.93" r="5.72"/>
        <path class="uuid-6c524f82-c126-48f1-92ed-9a8c213f68f9" d="M30.74,0C20.49,5.58,10.25,11.15,0,16.73c.02,9.12.04,18.23.06,27.35H.06c.91-1.39,2.18-2.53,3.71-3.28.06-.03.13-.06.19-.09.19-.09.39-.17.59-.25.07-.03.13-.05.2-.07.14-.05.27-.09.41-.13.07-.02.14-.04.21-.06,1.05-.29,2.12-.25,3.18-.25.89,0,1.79,0,2.59,0,.15,0,.29,0,.43,0,.07,0,.14,0,.2,0,.13,0,.26,0,.39,0,.06,0,.12,0,.18,0,.89,0,1.48,0,1.48,0h.11s16.8.01,16.8.01h16.9s.59-.01,1.48-.01c.06,0,.12,0,.18,0,.12,0,.25,0,.39,0,.07,0,.13,0,.2,0,.14,0,.28,0,.43,0,.8,0,1.7,0,2.59,0,1.06,0,2.13-.04,3.18.25.07.02.14.04.21.06.14.04.28.09.41.13.07.02.13.05.2.07.2.08.4.16.59.25.06.03.13.06.19.09,1.53.74,2.8,1.89,3.71,3.28h0c0-9.14.01-18.28.02-27.41C51.2,11.11,40.97,5.55,30.74,0ZM30.74,36.09c-5.61,0-10.16-4.55-10.16-10.16s4.55-10.16,10.16-10.16,10.16,4.55,10.16,10.16-4.55,10.16-10.16,10.16Z"/>
      </g>
    </g>
    <g>
      <path class="uuid-77725dcf-8ef2-4558-93e0-628de581d844" d="M104.07,46.73v-7.05c0-.29-.07-.5-.21-.65s-.32-.25-.54-.31l-4.03-1.04v-1.49h12.37v1.49l-2.59,1.04c-.18.07-.35.17-.52.32-.17.14-.25.36-.25.64v3.34c0,1.28,0,2.37.01,3.27s.04,1.62.09,2.15c-1.48.54-3.21,1.03-5.2,1.46-1.98.43-3.99.64-6.01.64-2.55,0-4.9-.58-7.04-1.75-2.14-1.17-3.85-2.88-5.12-5.14-1.28-2.26-1.92-5.03-1.92-8.3s.63-5.83,1.9-8.12c1.26-2.29,2.99-4.06,5.19-5.32,2.19-1.26,4.68-1.88,7.45-1.88,1.28,0,2.48.06,3.62.17s2.27.29,3.39.51c1.13.22,2.3.5,3.5.83v7.46h-2.4l-.75-4.22c-.04-.22-.16-.39-.36-.52-.2-.13-.38-.23-.56-.32-.98-.43-2.06-.78-3.24-1.04-1.18-.26-2.37-.39-3.57-.39-1.86,0-3.5.44-4.93,1.31s-2.54,2.2-3.33,3.96-1.19,4-1.19,6.7.41,5.01,1.22,7.05,2,3.63,3.54,4.79,3.42,1.73,5.62,1.73c.91,0,1.75-.08,2.53-.24.77-.16,1.45-.35,2.03-.56.58-.21,1.02-.38,1.31-.52Z"/>
      <path class="uuid-77725dcf-8ef2-4558-93e0-628de581d844" d="M119.5,49.86v-1.53l3.14-1c.23-.07.42-.18.56-.34s.21-.38.21-.68v-22.17c0-.29-.08-.5-.22-.65-.15-.15-.33-.26-.55-.33l-3.14-1.04v-1.49h22.76v7.25h-2.4l-.79-4.01c-.05-.24-.16-.43-.31-.56s-.34-.19-.57-.19h-10.49v10.66h6.54c.29,0,.49-.06.61-.19s.21-.31.26-.54l.75-3.26h1.92v10.47h-1.92l-.75-3.22c-.05-.24-.14-.43-.26-.57s-.33-.2-.61-.2h-6.54v10.04c0,.3.08.53.23.68.16.16.34.27.56.34l3.32,1v1.53h-12.31Z"/>
      <path class="uuid-77725dcf-8ef2-4558-93e0-628de581d844" d="M146.45,49.86v-1.53l2.08-.92c.5-.23.85-.6,1.04-1.12l8.29-21.23,2.4-4.87h2.3l10.29,26.16c.09.22.23.44.4.66.17.22.36.38.58.46l2.16.86v1.53h-10.8v-1.53l3.42-1.18-7.29-18.68-.79-2.75h-.35l-8.05,21.33,3.46,1.28v1.53h-9.15ZM154.6,39.62l1-2.83h9.39l1,2.83h-11.39Z"/>
    </g>
    <g>
      <path class="uuid-77725dcf-8ef2-4558-93e0-628de581d844" d="M87.74,60.27c-.31.11-.91.29-1.63.29-.8,0-1.46-.2-1.98-.7-.46-.44-.74-1.15-.74-1.98,0-1.57,1.09-2.74,2.87-2.74.61,0,1.1.14,1.32.24l-.17.56c-.28-.13-.64-.23-1.17-.23-1.29,0-2.13.8-2.13,2.13s.8,2.14,2.05,2.14c.45,0,.76-.06.91-.14v-1.58h-1.08v-.55h1.75v2.55Z"/>
      <path class="uuid-77725dcf-8ef2-4558-93e0-628de581d844" d="M89.54,55.62c0,.24-.17.43-.44.43-.25,0-.43-.19-.42-.43,0-.24.17-.43.43-.43s.42.19.43.43ZM88.76,60.5v-3.8h.69v3.8h-.69Z"/>
      <path class="uuid-77725dcf-8ef2-4558-93e0-628de581d844" d="M90.51,59.8c.2.13.57.28.91.28.5,0,.74-.25.74-.57,0-.33-.2-.5-.71-.69-.69-.25-1.01-.63-1.01-1.09,0-.61.5-1.11,1.31-1.11.39,0,.72.1.94.23l-.17.5c-.15-.09-.43-.23-.79-.23-.4,0-.63.24-.63.53,0,.32.22.46.72.65.65.24,1,.57,1,1.14,0,.67-.52,1.15-1.42,1.15-.42,0-.8-.11-1.07-.27l.17-.53Z"/>
      <path class="uuid-77725dcf-8ef2-4558-93e0-628de581d844" d="M93.72,54.91h.69v2.39h.02c.24-.43.69-.69,1.3-.69.94,0,1.61.79,1.61,1.94,0,1.36-.87,2.04-1.72,2.04-.55,0-.99-.21-1.28-.71h-.02l-.03.62h-.6c.02-.26.03-.65.03-.98v-4.61ZM94.4,58.98c0,.09,0,.17.03.25.13.49.54.81,1.04.81.73,0,1.16-.59,1.16-1.46,0-.76-.39-1.42-1.14-1.42-.46,0-.91.32-1.05.85-.02.09-.04.17-.04.28v.69Z"/>
      <path class="uuid-77725dcf-8ef2-4558-93e0-628de581d844" d="M98.59,58.72c.02.94.61,1.32,1.31,1.32.5,0,.8-.09,1.06-.2l.12.5c-.24.11-.66.24-1.27.24-1.17,0-1.87-.78-1.87-1.92s.68-2.05,1.79-2.05c1.24,0,1.57,1.09,1.57,1.79,0,.14-.02.25-.03.32h-2.67ZM100.62,58.23c0-.43-.18-1.12-.96-1.12-.7,0-1.01.64-1.06,1.12h2.02Z"/>
      <path class="uuid-77725dcf-8ef2-4558-93e0-628de581d844" d="M102.14,57.88c0-.45-.02-.83-.03-1.18h.61l.02.75h.02c.18-.51.61-.83,1.06-.83.08,0,.13,0,.19.02v.65c-.06-.02-.13-.02-.23-.02-.5,0-.83.37-.93.89-.02.09-.03.21-.03.32v2.04h-.69v-2.62Z"/>
      <path class="uuid-77725dcf-8ef2-4558-93e0-628de581d844" d="M105.74,55.6v1.1h.99v.52h-.99v2.05c0,.47.13.74.52.74.18,0,.31-.02.4-.05l.03.52c-.13.06-.35.1-.62.1-.31,0-.58-.11-.75-.29-.18-.22-.26-.55-.26-1v-2.08h-.59v-.52h.59v-.92l.68-.18Z"/>
      <path class="uuid-77725dcf-8ef2-4558-93e0-628de581d844" d="M109.2,55.2h2.86v.57h-2.17v1.77h2.01v.57h-2.01v2.4h-.69v-5.31Z"/>
      <path class="uuid-77725dcf-8ef2-4558-93e0-628de581d844" d="M116.22,58.6c0,1.41-1.03,1.99-1.91,1.99-1,0-1.81-.75-1.81-1.98s.87-2,1.9-2,1.83.76,1.83,1.98ZM113.19,58.61c0,.76.39,1.46,1.16,1.46s1.17-.69,1.17-1.46c0-.66-.31-1.48-1.17-1.48s-1.16.81-1.16,1.49Z"/>
      <path class="uuid-77725dcf-8ef2-4558-93e0-628de581d844" d="M117.09,57.72c0-.39-.02-.72-.03-1.02h.61l.03.62h.02c.19-.35.63-.71,1.26-.71.52,0,1.34.32,1.34,1.61v2.28h-.68v-2.19c0-.62-.23-1.13-.88-1.13-.46,0-.8.32-.93.71-.03.09-.05.21-.05.32v2.29h-.68v-2.78Z"/>
      <path class="uuid-77725dcf-8ef2-4558-93e0-628de581d844" d="M122.26,55.6v1.1h.99v.52h-.99v2.05c0,.47.13.74.52.74.18,0,.31-.02.4-.05l.03.52c-.13.06-.35.1-.62.1-.32,0-.58-.11-.75-.29-.18-.22-.26-.55-.26-1v-2.08h-.59v-.52h.59v-.92l.68-.18Z"/>
      <path class="uuid-77725dcf-8ef2-4558-93e0-628de581d844" d="M126.7,59.59c0,.33.02.65.05.91h-.62l-.06-.48h-.02c-.21.29-.62.57-1.17.57-.76,0-1.17-.55-1.17-1.09,0-.92.82-1.42,2.29-1.41v-.09c0-.31-.09-.88-.87-.88-.35,0-.73.11-.99.28l-.16-.46c.32-.21.78-.33,1.25-.33,1.17,0,1.45.79,1.45,1.56v1.42ZM126.03,58.57c-.76-.02-1.61.11-1.61.85,0,.46.31.66.65.66.5,0,.81-.32.93-.64.02-.08.03-.15.03-.22v-.65Z"/>
      <path class="uuid-77725dcf-8ef2-4558-93e0-628de581d844" d="M127.82,57.72c0-.39-.02-.72-.03-1.02h.61l.03.62h.02c.19-.35.63-.71,1.26-.71.52,0,1.34.32,1.34,1.61v2.28h-.68v-2.19c0-.62-.23-1.13-.88-1.13-.46,0-.8.32-.93.71-.03.09-.05.21-.05.32v2.29h-.68v-2.78Z"/>
      <path class="uuid-77725dcf-8ef2-4558-93e0-628de581d844" d="M134.86,59.59c0,.33.02.65.05.91h-.62l-.06-.48h-.02c-.21.29-.62.57-1.17.57-.76,0-1.17-.55-1.17-1.09,0-.92.82-1.42,2.29-1.41v-.09c0-.31-.09-.88-.87-.88-.35,0-.73.11-.99.28l-.16-.46c.32-.21.78-.33,1.25-.33,1.17,0,1.45.79,1.45,1.56v1.42ZM134.19,58.57c-.76-.02-1.61.11-1.61.85,0,.46.31.66.65.66.5,0,.81-.32.93-.64.02-.08.03-.15.03-.22v-.65Z"/>
      <path class="uuid-77725dcf-8ef2-4558-93e0-628de581d844" d="M141,60.5c-.15-.15-.29-.31-.5-.51-.46.42-.96.6-1.55.6-1.03,0-1.63-.69-1.63-1.49,0-.72.43-1.21,1.03-1.55v-.02c-.27-.34-.43-.73-.43-1.11,0-.65.46-1.31,1.35-1.31.65,0,1.17.43,1.17,1.13,0,.56-.32,1-1.17,1.42v.02c.45.52.95,1.09,1.3,1.48.24-.37.4-.88.5-1.55h.63c-.14.83-.37,1.49-.77,1.96.29.3.56.6.89.94h-.83ZM140.16,59.59c-.31-.35-.91-.99-1.5-1.67-.29.18-.69.52-.69,1.08,0,.61.45,1.07,1.08,1.07.47,0,.84-.21,1.1-.48ZM138.54,56.35c0,.38.18.67.41.96.54-.32.88-.59.88-1.05,0-.32-.19-.68-.61-.68s-.68.37-.68.77Z"/>
      <path class="uuid-77725dcf-8ef2-4558-93e0-628de581d844" d="M144.96,58.84l-.54,1.67h-.72l1.81-5.31h.82l1.81,5.31h-.73l-.57-1.67h-1.88ZM146.7,58.3l-.52-1.53c-.12-.35-.2-.66-.28-.97h-.02c-.07.31-.16.64-.26.96l-.52,1.54h1.6Z"/>
      <path class="uuid-77725dcf-8ef2-4558-93e0-628de581d844" d="M148.75,59.8c.2.13.57.28.91.28.5,0,.74-.25.74-.57,0-.33-.2-.5-.71-.69-.68-.25-1.01-.63-1.01-1.09,0-.61.5-1.11,1.32-1.11.39,0,.72.1.94.23l-.17.5c-.15-.09-.43-.23-.79-.23-.4,0-.63.24-.63.53,0,.32.22.46.72.65.65.24,1,.57,1,1.14,0,.67-.52,1.15-1.42,1.15-.42,0-.8-.11-1.07-.27l.17-.53Z"/>
      <path class="uuid-77725dcf-8ef2-4558-93e0-628de581d844" d="M155.41,58.6c0,1.41-1.03,1.99-1.91,1.99-1,0-1.81-.75-1.81-1.98s.87-2,1.9-2,1.83.76,1.83,1.98ZM152.39,58.61c0,.76.39,1.46,1.16,1.46s1.17-.69,1.17-1.46c0-.66-.31-1.48-1.17-1.48s-1.16.81-1.16,1.49Z"/>
      <path class="uuid-77725dcf-8ef2-4558-93e0-628de581d844" d="M159,60.36c-.18.09-.58.23-1.09.23-1.15,0-1.9-.78-1.9-1.95s.8-2.03,2.05-2.03c.4,0,.77.1.96.2l-.16.54c-.17-.09-.42-.18-.8-.18-.87,0-1.35.65-1.35,1.44,0,.88.57,1.42,1.33,1.42.39,0,.65-.1.84-.19l.12.52Z"/>
      <path class="uuid-77725dcf-8ef2-4558-93e0-628de581d844" d="M160.59,55.62c0,.24-.17.43-.44.43-.25,0-.42-.19-.42-.43,0-.24.17-.43.42-.43s.43.19.43.43ZM159.81,60.5v-3.8h.68v3.8h-.68Z"/>
      <path class="uuid-77725dcf-8ef2-4558-93e0-628de581d844" d="M164.33,59.59c0,.33.02.65.05.91h-.62l-.06-.48h-.02c-.21.29-.62.57-1.17.57-.76,0-1.17-.55-1.17-1.09,0-.92.82-1.42,2.29-1.41v-.09c0-.31-.09-.88-.87-.88-.35,0-.73.11-.99.28l-.16-.46c.32-.21.78-.33,1.25-.33,1.17,0,1.45.79,1.45,1.56v1.42ZM163.66,58.57c-.76-.02-1.61.11-1.61.85,0,.46.31.66.65.66.5,0,.81-.32.93-.64.02-.08.03-.15.03-.22v-.65Z"/>
      <path class="uuid-77725dcf-8ef2-4558-93e0-628de581d844" d="M168.73,54.91v4.61c0,.33.02.71.03.98h-.61l-.03-.66h-.02c-.21.43-.67.75-1.28.75-.93,0-1.64-.78-1.64-1.93,0-1.28.78-2.05,1.71-2.05.58,0,.98.27,1.15.58h.02v-2.28h.69ZM168.04,58.24c0-.09,0-.21-.02-.29-.11-.44-.49-.8-1.01-.8-.72,0-1.15.62-1.15,1.46,0,.77.39,1.42,1.13,1.42.46,0,.88-.31,1.02-.83.02-.09.03-.19.03-.3v-.66Z"/>
      <path class="uuid-77725dcf-8ef2-4558-93e0-628de581d844" d="M173.33,58.6c0,1.41-1.03,1.99-1.91,1.99-1,0-1.81-.75-1.81-1.98s.87-2,1.9-2,1.83.76,1.83,1.98ZM170.3,58.61c0,.76.39,1.46,1.16,1.46s1.17-.69,1.17-1.46c0-.66-.31-1.48-1.17-1.48s-1.16.81-1.16,1.49Z"/>
      <path class="uuid-77725dcf-8ef2-4558-93e0-628de581d844" d="M174.11,59.8c.2.13.57.28.91.28.5,0,.74-.25.74-.57,0-.33-.2-.5-.71-.69-.68-.25-1.01-.63-1.01-1.09,0-.61.5-1.11,1.32-1.11.39,0,.72.1.94.23l-.17.5c-.15-.09-.43-.23-.79-.23-.4,0-.63.24-.63.53,0,.32.22.46.72.65.65.24,1,.57,1,1.14,0,.67-.52,1.15-1.42,1.15-.42,0-.8-.11-1.07-.27l.17-.53Z"/>
    </g>
    <path class="uuid-e9547796-c9b5-4e5a-aa40-b9382e1eb42f" d="M24.86,49.89c0-.6-.48-1.08-1.08-1.08h-2.24c-.6,0-1.08.48-1.08,1.08v14.98c0,.6.48,1.08,1.08,1.08h2.24c.6,0,1.08-.48,1.08-1.08v-14.98Z"/>
    <path class="uuid-e9547796-c9b5-4e5a-aa40-b9382e1eb42f" d="M36.21,65.07c0,.49.4.89.89.89h2.63c.49,0,.89-.4.89-.89v-15.37c0-.49-.4-.89-.89-.89h-2.63c-.49,0-.89.4-.89.89v15.37Z"/>
    <path class="uuid-77725dcf-8ef2-4558-93e0-628de581d844" d="M60.79,54.18s-.09.11-.13.17c-.05.06-.11.15-.2.25-.09.11-.2.24-.33.38-.34.37-.81.82-1.39,1.27-.29.22-.61.44-.96.64-.95.56-2.11,1.01-3.44,1.1-.73.05-1.42-.01-2.08-.17-.19-.04-.37-.09-.55-.15-.09-.03-.18-.06-.27-.09-.35-.13-.69-.28-1.02-.46-.08-.04-.16-.09-.24-.14-3.94-2.28-5.92-7.62-5.9-7.8.02-.11.08-.18.08-.18.04-.04.08-.06.11-.07,0,0,.02,0,.03,0,.02,0,.04,0,.05,0,.77,0,1.47,0,2.06,0,.11,0,.21,0,.31,0,.94,0,1.53,0,1.57,0,0,0,.04,0,.09.01.03,0,.06.02.08.03,0,0,.02,0,.02.02,0,0,.01.01.02.02,0,0,.02.02.03.03,0,0,.01.02.02.03h0s.04.07.04.09h0s.03.08.08.22c.01.03.03.07.05.11.02.04.04.08.06.13.03.07.07.15.1.23.04.08.08.17.13.26.31.61.8,1.41,1.46,2.09.1.1.2.2.31.29.07.06.15.12.22.18.04.03.08.06.11.09.23.17.48.32.74.44.04.02.09.04.13.06.09.04.18.07.27.1.51.17,1.08.22,1.71.12.13-.02.27-.05.39-.09.26-.07.51-.17.74-.29.06-.03.12-.06.17-.09.4-.22.76-.51,1.08-.84.05-.05.09-.1.13-.14.73-.83,1.18-1.91,1.21-2.95,0-.09,0-.18,0-.26,0-.09,0-.17-.01-.25-.03-.37-.1-.71-.19-1.01,0-.03-.02-.07-.03-.1-.02-.06-.04-.12-.06-.18-.05-.15-.11-.28-.16-.4-.02-.05-.04-.09-.06-.13-.01-.02-.02-.04-.03-.06-.02-.04-.04-.07-.06-.11,0-.02-.02-.03-.03-.05-.04-.08-.08-.13-.1-.17-1.35-2.04-3.86-2.14-4.49-2.13h.04c-.93,0-1.86,0-2.8,0H11.15c-.93,0-1.86,0-2.8,0h.04c-.63-.01-3.14.08-4.49,2.13-.03.04-.06.1-.1.17,0,.02-.02.03-.03.05-.02.03-.04.07-.06.11,0,.02-.02.04-.03.06-.02.04-.04.09-.06.13-.04.09-.09.2-.13.31-.03.08-.06.17-.09.27,0,.03-.02.06-.03.1-.09.3-.16.64-.19,1.01,0,.08-.01.17-.01.25,0,.09,0,.17,0,.26.03,1.04.47,2.12,1.21,2.95.04.05.09.1.13.14.32.33.68.62,1.08.84.06.03.12.06.17.09.24.12.48.21.74.29.13.04.26.07.39.09.62.11,1.19.05,1.71-.12.09-.03.19-.06.27-.1.04-.02.09-.04.13-.06.26-.12.51-.27.74-.44.04-.03.08-.06.11-.09.08-.06.15-.12.22-.18.11-.09.21-.19.31-.29.66-.67,1.15-1.48,1.46-2.09.05-.09.09-.18.13-.26.04-.08.07-.16.1-.23.02-.05.04-.09.06-.13s.03-.08.05-.11c.06-.14.08-.21.08-.22h0s.02-.05.04-.09h0s.01-.02.02-.03c0-.01.02-.02.03-.03,0,0,.01-.01.02-.02,0,0,.02-.01.02-.02.02-.01.05-.03.08-.03.04-.01.08-.01.09-.01.04,0,.63,0,1.57,0,.1,0,.2,0,.31,0,.59,0,1.28,0,2.06,0,0,0,.03,0,.05,0,0,0,.02,0,.03,0,.04.01.08.03.11.07,0,0,.06.07.08.18.03.18-1.96,5.51-5.9,7.8-.08.05-.16.09-.24.14-.33.18-.67.33-1.02.46-.09.03-.18.06-.27.09-.18.06-.36.11-.55.15-.65.15-1.35.22-2.08.17-1.33-.09-2.49-.54-3.44-1.1-.52-.3-.98-.64-1.37-.97-.39-.33-.72-.66-.98-.93-.13-.14-.24-.27-.33-.38-.18-.22-.3-.38-.33-.42-.05-.07-.1-.15-.15-.23v2.36c1.73,2.68,4.74,6.57,9.54,9.94,7.52,5.28,15.11,6.26,18.66,6.48,0-4.75-.03-23.23,0-23.57.02-.18.11-.26.11-.26.08-.06.18-.06.21-.06.22,0,1.71,0,3.75,0,0,0,.02,0,.03,0,.02,0,.05,0,.08,0,0,0,.02,0,.04.01,0,0,.04.02.07.04.03.03.07.07.1.14.01.03.01.06.01.09,0,.1,0,10.06,0,23.6,3.59-.23,11.26-1.22,18.82-6.59,4.59-3.26,7.52-6.99,9.25-9.63,0-.78-.02-1.55-.02-2.33ZM24.86,65.78c0,.16-.13.29-.29.29h-3.83c-.16,0-.29-.13-.29-.29v-16.66c0-.16.13-.29.29-.29h3.83c.16,0,.29.13.29.29v16.66ZM40.61,65.78c0,.16-.13.29-.29.29h-3.83c-.16,0-.29-.13-.29-.29v-16.66c0-.16.13-.29.29-.29h3.83c.16,0,.29.13.29.29v16.66Z"/>
    <g>
      <circle class="uuid-6c524f82-c126-48f1-92ed-9a8c213f68f9" cx="30.54" cy="25.88" r="5.67"/>
      <path class="uuid-6c524f82-c126-48f1-92ed-9a8c213f68f9" d="M30.54.18C20.38,5.71,10.22,11.24.06,16.76c.02,9.04.04,18.07.06,27.11H.13c.9-1.38,2.16-2.51,3.68-3.25.06-.03.13-.06.19-.09.19-.09.39-.17.59-.24.07-.02.13-.05.2-.07.13-.05.27-.09.41-.13.07-.02.14-.04.21-.06,1.04-.28,2.1-.25,3.15-.25.88,0,1.77,0,2.57,0,.14,0,.28,0,.42,0,.07,0,.14,0,.2,0,.13,0,.26,0,.38,0,.06,0,.12,0,.18,0,.89,0,1.47,0,1.47,0h.11s16.65.01,16.65.01h16.76s.59-.01,1.47-.01c.06,0,.12,0,.18,0,.12,0,.25,0,.38,0,.07,0,.13,0,.2,0,.14,0,.28,0,.42,0,.79,0,1.69,0,2.57,0,1.06,0,2.11-.04,3.15.25.07.02.14.04.21.06.14.04.27.08.41.13.07.02.13.05.2.07.2.07.39.16.59.24.06.03.13.06.19.09,1.51.74,2.78,1.87,3.68,3.25h0c0-9.06.01-18.12.02-27.18C50.82,11.19,40.68,5.69,30.54.18ZM30.54,35.95c-5.56,0-10.07-4.51-10.07-10.07s4.51-10.07,10.07-10.07,10.07,4.51,10.07,10.07-4.51,10.07-10.07,10.07Z"/>
    </g>
    <path class="uuid-ce1c9ee9-b3b1-4121-923a-90b8867e29d6" d="M138.72,60.16h.08v.58h.28v.07h-.36v-.65Z"/>
  </g>
</svg>